<svg xmlns="http://www.w3.org/2000/svg" version="1.1" viewBox="0.6007936596870422 3.626509666442871 674.6931762695312 702.9503784179688" width="674.6931762695312" height="100%">
<g stroke-width="2.00" fill="none" stroke-linecap="butt">
<path stroke="#634038" d="
  M 514.10 638.62
  Q 513.38 639.43 512.46 641.33
  Q 511.76 642.79 510.89 643.97
  C 506.93 649.35 500.96 655.57 494.47 658.02
  Q 489.80 659.78 484.83 660.26
  Q 480.75 660.64 477.03 660.89
  Q 472.84 661.17 469.07 661.19
  Q 428.23 661.39 380.50 661.13
  Q 377.41 661.11 374.00 661.08
  Q 289.56 660.25 195.25 661.11
  C 191.33 661.15 187.27 660.94 183.25 660.97
  Q 131.52 661.39 82.00 661.14
  C 69.70 661.08 57.34 661.20 44.58 661.28
  C 37.24 661.32 26.89 660.49 20.77 655.96
  Q 14.93 651.63 8.31 644.76" class="svg-elem-1"></path>
<path stroke="#873d1f" d="
  M 31.03 392.98
  Q 21.67 397.98 18.59 408.59
  Q 18.26 409.72 18.26 411.00
  Q 18.35 509.94 18.41 613.50
  Q 18.42 620.89 18.70 622.76
  Q 19.55 628.43 23.73 635.38
  C 26.89 640.63 35.12 642.63 40.53 642.66
  Q 64.07 642.76 87.76 642.66
  Q 88.42 642.65 88.42 642.00
  L 88.35 391.02
  Q 88.35 390.67 88.00 390.67
  Q 64.77 390.71 41.61 390.71
  C 38.02 390.71 34.30 391.23 31.03 392.98" class="svg-elem-2"></path>
<path stroke="#7f7d80" d="
  M 492.46 621.68
  L 501.32 621.64
  A 0.08 0.08 0.0 0 0 501.40 621.56
  Q 501.37 557.71 501.24 494.00
  Q 501.22 484.14 501.08 474.01
  Q 500.62 442.90 500.72 411.79
  Q 500.73 409.52 499.96 407.55
  Q 499.18 405.59 498.13 403.53" class="svg-elem-3"></path>
<path stroke="#8f8e91" d="
  M 498.13 403.53
  Q 495.09 398.39 489.80 394.19
  Q 485.10 390.46 479.46 390.46
  Q 293.92 390.58 106.25 390.72
  Q 105.68 390.72 105.68 391.29
  L 105.68 642.98
  Q 105.68 643.50 106.20 643.51
  Q 178.91 643.64 248.91 643.81
  C 251.66 643.82 254.46 644.15 257.25 644.18
  Q 297.78 644.54 336.50 643.93
  Q 346.90 643.77 356.50 643.75
  Q 413.65 643.60 471.14 643.73
  Q 476.21 643.74 480.17 643.22
  Q 485.19 642.56 489.47 640.62
  Q 494.51 638.33 499.18 633.43
  A 0.60 0.60 0.0 0 0 498.75 632.41
  Q 464.30 632.52 429.64 632.53
  C 425.94 632.53 423.55 630.82 420.13 630.20
  A 2.95 2.95 0.0 0 1 417.69 627.28
  Q 417.71 601.25 417.80 568.24
  C 417.81 564.66 418.25 561.13 418.25 557.59
  Q 418.28 519.07 418.34 478.25
  Q 418.35 474.16 422.44 473.95
  Q 422.48 473.94 422.61 473.94
  Q 426.75 473.72 426.73 477.84
  Q 426.50 545.40 426.95 599.50
  Q 426.97 601.83 427.04 604.25
  Q 427.28 612.89 427.29 620.93
  A 0.70 0.69 0.0 0 0 427.99 621.62
  L 492.46 621.68" class="svg-elem-4"></path>
<path stroke="#f0eeee" d="
  M 498.13 403.53
  Q 497.97 404.42 497.35 404.64
  Q 496.90 404.79 496.66 405.21
  C 496.10 406.18 495.46 407.27 495.56 408.43
  Q 496.18 415.00 495.81 418.19
  Q 495.22 423.36 495.10 428.40
  C 494.87 438.41 494.45 446.46 494.35 455.14
  Q 494.29 460.24 494.07 465.71
  C 493.84 471.30 494.08 476.96 493.70 482.67
  Q 493.48 485.83 493.48 489.00
  Q 493.32 555.31 492.46 621.68" class="svg-elem-5"></path>
<path stroke="#908e8f" d="
  M 469.74 455.49
  A 1.59 1.58 10.0 0 0 471.23 454.45
  Q 471.71 453.14 471.72 451.81
  Q 471.86 432.35 471.69 414.42
  Q 471.66 411.31 470.16 408.88
  Q 469.92 408.48 469.45 408.48
  L 382.34 408.50
  A 2.04 2.03 -90.0 0 0 380.31 410.54
  L 380.25 453.00
  A 2.51 2.50 -90.0 0 0 382.75 455.51
  L 469.74 455.49" class="svg-elem-6"></path>
<path stroke="#908e8f" d="
  M 347.67 588.22
  Q 350.03 585.27 352.43 582.43
  C 354.17 580.38 354.90 577.68 356.63 575.55
  Q 359.89 571.52 361.31 568.02
  C 363.04 563.78 365.18 559.61 366.32 555.21
  C 367.17 551.92 368.70 549.01 369.48 545.63
  Q 373.87 526.48 371.65 507.23
  C 370.56 497.76 367.79 488.82 364.16 480.04
  C 362.36 475.70 362.21 471.13 358.91 467.48
  C 356.19 464.47 354.72 460.54 352.07 457.46
  Q 347.14 451.75 342.14 445.41
  C 337.62 439.67 331.04 437.61 325.98 432.60
  C 321.90 428.57 317.24 426.34 312.28 423.69
  C 309.83 422.38 307.35 422.60 304.95 421.50
  Q 292.88 416.00 281.08 414.26
  C 274.09 413.24 266.65 412.23 259.72 412.65
  Q 250.37 413.21 239.30 415.30
  Q 236.64 415.81 234.35 416.84
  C 231.52 418.11 228.48 418.12 225.78 419.40
  C 223.35 420.56 221.07 421.84 218.52 422.70
  C 212.75 424.66 207.84 427.04 202.91 430.91
  Q 197.35 435.26 191.57 438.90
  C 187.59 441.40 185.39 446.22 181.48 449.35
  C 178.23 451.95 176.34 455.06 173.82 458.07
  C 170.93 461.52 170.20 465.76 167.75 469.39
  Q 165.69 472.44 164.11 475.80
  C 162.12 480.03 159.90 483.97 158.96 488.59
  Q 158.02 493.22 157.29 497.73
  C 156.80 500.78 155.39 503.29 155.42 506.50
  Q 155.46 510.85 154.93 514.76
  C 154.55 517.53 154.63 520.40 154.67 523.24
  Q 154.71 525.95 155.04 528.69
  Q 155.37 531.42 155.65 534.12
  Q 156.73 544.62 160.28 554.06
  C 161.60 557.59 162.17 561.18 164.18 564.64
  Q 166.71 568.98 168.78 573.35
  Q 170.78 577.59 173.40 581.07
  Q 185.62 597.31 202.30 609.26
  C 204.36 610.73 207.05 611.33 209.36 612.94
  Q 217.88 618.90 226.78 621.52
  Q 231.99 623.06 237.18 624.88
  Q 242.91 626.89 251.23 627.63
  C 253.27 627.81 254.96 628.50 257.08 628.56
  Q 266.52 628.82 273.01 628.15
  Q 287.67 626.64 305.36 620.04
  C 309.34 618.55 313.32 615.54 317.32 613.55
  Q 323.72 610.37 331.16 605.13
  Q 333.56 603.45 335.59 601.12
  Q 338.94 597.29 343.09 594.24
  C 345.34 592.60 346.19 590.06 347.67 588.22" class="svg-elem-7"></path>
<path stroke="#908e8f" d="
  M 454.5288 426.8989
  A 0.51 0.51 0.0 0 0 454.0197 426.3880
  L 399.0597 426.2920
  A 0.51 0.51 0.0 0 0 398.5489 426.8012
  L 398.5312 436.9011
  A 0.51 0.51 0.0 0 0 399.0403 437.4120
  L 454.0003 437.5080
  A 0.51 0.51 0.0 0 0 454.5111 436.9988
  L 454.5288 426.8989" class="svg-elem-8"></path>
<path stroke="#5b595b" d="
  M 215.06 595.12
  C 221.42 598.49 227.49 602.44 234.09 605.24
  C 238.63 607.18 243.84 607.54 248.68 608.80
  C 251.96 609.65 255.32 609.55 258.69 609.95
  Q 262.45 610.40 266.23 610.21
  Q 272.18 609.91 276.64 609.07
  Q 281.42 608.16 286.65 607.04
  Q 291.47 606.01 295.78 604.12
  Q 302.06 601.38 306.86 598.36
  C 309.90 596.44 313.01 595.10 316.14 593.64
  A 9.51 9.44 9.3 0 0 318.93 591.65
  Q 324.57 585.78 330.20 580.88
  C 333.72 577.81 336.38 573.97 338.81 570.04
  C 340.90 566.66 344.19 563.47 345.40 559.86
  Q 347.65 553.14 350.09 546.37
  Q 357.17 526.76 353.30 505.72
  Q 352.42 500.92 349.53 492.65
  C 346.16 483.00 343.07 473.93 335.87 466.74
  C 332.41 463.28 329.88 459.10 326.44 455.56
  C 323.24 452.28 318.93 450.40 315.61 447.40
  Q 313.26 445.27 311.19 443.72
  C 307.35 440.83 300.84 438.81 297.17 437.48
  C 280.38 431.39 263.30 428.68 246.33 432.09
  Q 241.30 433.09 234.37 435.61
  Q 228.47 437.75 222.50 439.71
  Q 220.02 440.52 217.56 442.31
  Q 211.23 446.92 205.59 450.93
  Q 201.84 453.58 198.71 457.41
  Q 193.88 463.31 189.38 468.44
  C 188.10 469.90 186.03 472.55 185.57 474.40
  Q 184.91 477.05 183.44 479.25
  Q 176.42 489.74 173.91 504.25
  Q 172.83 510.49 172.71 515.37
  Q 172.42 526.71 174.61 538.00
  C 175.99 545.15 179.15 553.06 182.44 559.45
  Q 184.38 563.18 186.67 567.18
  Q 188.93 571.12 191.66 574.30
  Q 200.13 584.20 209.92 591.81
  Q 212.24 593.62 215.06 595.12" class="svg-elem-9"></path>
<path stroke="#5b595b" d="
  M 303.58 453.56
  C 301.57 452.60 299.75 451.20 297.67 450.34
  Q 290.72 447.46 283.66 445.17
  Q 279.24 443.73 275.23 443.29
  C 265.70 442.25 255.13 441.38 245.89 444.49
  Q 242.75 445.54 239.61 446.49
  C 237.14 447.22 235.20 448.90 232.69 449.30
  C 229.04 449.89 226.16 451.34 223.11 453.44
  Q 218.96 456.29 215.13 458.95
  C 211.66 461.36 209.51 464.97 206.81 467.71
  Q 204.56 469.99 202.01 472.43
  C 199.30 475.02 198.18 479.29 195.92 482.38
  Q 185.95 496.00 185.43 514.83
  Q 185.02 529.25 187.86 539.76
  Q 191.06 551.62 200.24 565.06
  Q 205.86 573.27 214.02 580.10
  C 217.59 583.09 221.82 585.34 225.72 588.08
  Q 228.49 590.03 232.23 591.87
  C 236.22 593.84 240.27 594.86 244.41 596.28
  Q 247.05 597.18 249.76 597.62
  Q 262.81 599.73 276.04 597.66
  C 279.81 597.07 282.60 595.87 286.01 594.93
  Q 289.55 593.96 293.30 592.33
  Q 298.84 589.92 301.46 588.26
  Q 311.27 582.06 318.09 575.45
  Q 320.72 572.91 329.89 561.32
  C 332.78 557.67 333.99 552.98 336.05 548.71
  Q 338.25 544.14 339.54 538.83
  Q 346.25 511.16 333.39 486.07
  Q 330.43 480.28 326.31 473.68
  C 325.22 471.94 324.06 470.09 322.34 468.93
  Q 318.82 466.53 316.19 463.28
  C 312.87 459.16 308.36 455.85 303.58 453.56" class="svg-elem-10"></path>
<path stroke="#105759" d="
  M 296.74 541.63
  Q 299.79 537.00 300.63 533.42
  C 302.10 527.21 303.35 519.61 301.38 513.36
  C 299.76 508.26 299.09 502.78 295.78 498.36
  C 290.80 491.71 284.72 485.08 276.78 482.38
  Q 268.17 479.45 261.97 479.51
  Q 252.82 479.59 242.55 483.51
  C 239.99 484.49 238.65 486.71 236.68 488.43
  Q 233.17 491.51 229.70 495.48
  Q 227.01 498.56 225.92 502.19
  Q 224.06 508.32 223.61 512.20
  Q 223.17 516.02 222.70 519.92
  Q 222.67 520.24 222.75 520.54
  Q 223.30 522.63 223.72 526.32
  Q 224.24 530.99 226.29 535.99
  Q 228.41 541.15 231.22 544.48
  Q 236.24 550.45 242.84 555.22
  C 245.40 557.08 248.51 557.54 251.44 558.54
  Q 254.27 559.50 258.18 559.68
  C 264.78 559.98 272.21 559.91 278.02 557.00
  Q 285.00 553.49 289.94 549.52
  Q 293.39 546.73 296.74 541.63" class="svg-elem-11"></path>
<path stroke="#70b7b9" d="
  M 277.92 508.52
  C 282.85 513.30 289.81 517.42 290.82 525.30
  Q 291.58 531.21 291.06 536.09
  Q 290.99 536.77 291.47 536.28
  C 294.07 533.67 294.34 527.22 293.93 523.77
  Q 292.93 515.46 289.37 507.64
  Q 289.20 507.28 288.50 506.50" class="svg-elem-12"></path>
<path stroke="#80c8ca" d="
  M 288.50 506.50
  C 287.51 505.62 286.62 504.71 286.56 503.30
  C 286.40 499.57 284.72 496.46 283.17 493.21
  Q 282.54 491.89 282.63 490.41
  Q 282.66 489.88 282.20 489.61
  Q 276.81 486.42 273.39 485.78
  Q 269.64 485.07 266.79 483.87
  A 3.46 3.44 45.1 0 0 264.11 483.86
  L 258.78 486.10
  Q 258.32 486.30 258.51 486.77
  L 258.64 487.10
  A 0.50 0.49 -20.0 0 0 259.26 487.38
  L 261.40 486.63
  Q 262.27 486.33 261.72 487.07
  Q 260.22 489.07 258.03 488.72
  Q 255.02 488.24 255.37 491.26
  L 255.73 494.36
  Q 256.01 496.84 258.49 497.17
  Q 262.62 497.74 267.37 498.82
  C 269.77 499.36 270.43 501.38 270.96 503.46
  Q 271.14 504.18 271.77 504.58
  L 277.92 508.52" class="svg-elem-13"></path>
<path stroke="#f0eeee" d="
  M 288.50 506.50
  Q 288.45 506.66 288.39 506.79
  Q 288.21 507.14 287.83 507.17
  C 284.69 507.45 280.69 506.92 277.92 508.52" class="svg-elem-14"></path>
</g>
<ellipse fill="#201c1e" cx="0.00" cy="0.00" transform="translate(647.12,4.17) rotate(7.1)" rx="2.39" ry="0.25" class="svg-elem-15"></ellipse>
<path fill="#1b1b28" d="
  M 505.33 254.91
  Q 501.87 268.27 499.38 282.46
  Q 497.66 292.25 495.62 300.90
  Q 493.49 309.90 491.87 319.34
  C 491.60 320.87 490.86 322.20 490.72 323.81
  Q 490.19 329.91 488.52 336.62
  A 1.62 1.62 0.0 0 1 486.79 337.84
  C 484.28 337.60 480.94 334.31 479.17 332.67
  C 476.79 330.47 476.99 326.82 477.68 323.99
  Q 482.19 305.61 485.76 286.82
  Q 487.72 276.49 489.76 267.24
  Q 491.99 257.10 494.06 247.48
  Q 496.14 237.79 497.41 226.77
  Q 497.67 224.50 498.82 221.72
  Q 499.04 221.18 499.46 221.57
  Q 502.93 224.78 507.00 227.32
  A 3.44 3.42 -76.6 0 1 508.62 229.97
  C 509.16 236.53 506.95 242.42 506.41 248.90
  Q 506.18 251.64 505.33 254.91
  Z" class="svg-elem-16"></path>
<path fill="#1b1b28" d="
  M 351.83 272.34
  Q 356.60 280.29 361.38 287.80
  C 365.24 293.84 368.03 300.52 372.04 306.48
  Q 377.71 314.89 382.25 324.79
  C 383.35 327.20 384.39 333.20 383.21 335.74
  A 2.01 2.00 9.0 0 1 381.62 336.89
  Q 376.65 337.46 373.45 333.01
  Q 369.52 327.55 367.64 323.63
  Q 365.02 318.16 362.63 314.11
  Q 358.70 307.42 354.45 300.47
  Q 352.00 296.47 349.46 291.38
  Q 347.34 287.13 343.93 281.88
  Q 339.28 274.71 332.70 262.05
  Q 331.41 259.57 328.78 256.01
  Q 323.79 249.23 318.35 238.27
  C 317.14 235.82 316.76 233.31 315.85 230.78
  C 314.74 227.68 316.14 225.81 319.18 224.85
  C 321.02 224.27 322.54 224.08 323.94 225.69
  C 327.45 229.72 329.74 235.09 332.51 239.65
  C 337.49 247.86 342.22 256.18 347.57 264.03
  C 349.25 266.49 350.18 269.58 351.83 272.34
  Z" class="svg-elem-17"></path>
<path fill="#1b1b28" d="
  M 420.06 299.59
  Q 419.03 296.74 418.69 293.81
  C 418.26 290.13 417.08 286.71 416.63 283.04
  Q 416.20 279.41 415.36 276.10
  C 414.57 272.95 414.68 269.77 414.03 266.61
  Q 412.91 261.10 412.54 256.22
  Q 412.35 253.68 411.67 251.17
  C 411.14 249.19 410.87 245.97 411.22 243.74
  Q 411.29 243.28 411.72 243.10
  Q 414.47 241.92 417.28 242.92
  Q 417.69 243.07 417.90 243.45
  Q 418.47 244.50 418.80 245.74
  C 420.49 252.19 421.75 258.32 423.27 264.60
  Q 424.81 270.93 425.76 276.64
  Q 427.22 285.50 428.68 292.28
  Q 430.30 299.84 431.81 307.97
  C 432.88 313.69 433.81 319.32 434.93 324.64
  C 435.17 325.80 436.06 326.82 436.84 327.69
  A 0.66 0.66 0.0 0 1 436.58 328.75
  Q 431.81 330.51 427.09 330.69
  A 1.67 1.66 -5.7 0 1 425.39 329.30
  C 424.68 324.89 424.52 320.69 423.46 316.34
  C 422.60 312.84 422.56 309.16 421.73 305.74
  C 421.24 303.69 420.79 301.59 420.06 299.59
  Z" class="svg-elem-18"></path>
<path fill="#1b1b28" d="
  M 527.22 346.34
  C 530.75 337.96 537.75 332.25 542.70 325.04
  Q 544.72 322.08 547.88 318.96
  Q 553.79 313.11 557.76 307.23
  Q 560.72 302.84 563.82 298.78
  Q 566.30 295.52 568.76 298.79
  Q 569.04 299.16 569.25 299.45
  Q 571.74 302.75 568.94 305.80
  Q 565.13 309.95 561.85 314.53
  C 557.22 321.00 551.95 326.94 546.91 332.99
  C 542.06 338.82 536.90 344.13 531.74 349.63
  Q 531.18 350.23 530.50 349.79
  L 527.73 348.01
  A 1.35 1.35 0.0 0 1 527.22 346.34
  Z" class="svg-elem-19"></path>
<path fill="#1b1b28" d="
  M 662.70 331.88
  C 666.68 330.35 672.63 326.92 674.78 332.65
  C 676.06 336.04 674.95 339.35 671.44 340.58
  C 659.96 344.61 648.03 348.67 636.74 353.26
  Q 631.38 355.44 624.58 357.20
  Q 619.49 358.51 613.58 361.20
  Q 606.77 364.29 597.60 367.07
  Q 587.86 370.02 581.58 372.45
  Q 571.19 376.46 559.30 380.82
  Q 555.65 382.16 552.04 383.00
  Q 548.27 383.87 544.62 385.48
  C 542.15 386.57 539.26 387.05 536.58 387.15
  C 532.96 387.28 531.95 384.08 531.58 381.21
  A 2.09 2.08 75.1 0 1 532.85 379.01
  C 542.10 375.19 551.21 372.37 560.29 368.83
  C 565.04 366.97 569.75 365.35 574.48 363.49
  Q 586.89 358.62 598.02 355.15
  Q 603.85 353.33 612.35 349.81
  Q 619.13 347.01 626.87 344.54
  Q 643.74 339.16 662.70 331.88
  Z" class="svg-elem-20"></path>
<path fill="#1e1d23" d="
  M 514.10 638.62
  Q 513.38 639.43 512.46 641.33
  Q 511.76 642.79 510.89 643.97
  C 506.93 649.35 500.96 655.57 494.47 658.02
  Q 489.80 659.78 484.83 660.26
  Q 480.75 660.64 477.03 660.89
  Q 472.84 661.17 469.07 661.19
  Q 428.23 661.39 380.50 661.13
  Q 377.41 661.11 374.00 661.08
  Q 289.56 660.25 195.25 661.11
  C 191.33 661.15 187.27 660.94 183.25 660.97
  Q 131.52 661.39 82.00 661.14
  C 69.70 661.08 57.34 661.20 44.58 661.28
  C 37.24 661.32 26.89 660.49 20.77 655.96
  Q 14.93 651.63 8.31 644.76
  Q 7.44 643.00 6.41 641.52
  C 4.81 639.19 3.35 636.17 2.79 633.51
  Q 0.85 624.29 0.83 619.92
  Q 0.45 515.08 0.70 414.77
  C 0.71 411.40 0.56 408.17 1.53 404.79
  C 2.91 399.99 3.28 395.78 6.49 391.58
  Q 11.68 384.78 18.66 379.09
  Q 21.48 376.79 24.27 375.60
  C 28.50 373.80 33.80 373.15 38.56 373.16
  Q 104.16 373.20 169.99 373.15
  C 172.87 373.15 175.76 372.91 178.55 372.91
  Q 401.81 372.45 483.41 372.90
  Q 490.80 372.94 498.17 377.61
  Q 501.42 379.67 505.49 383.34
  C 513.45 390.54 517.63 400.92 517.61 411.27
  Q 517.52 451.69 517.77 490.88
  C 517.78 492.84 518.20 494.80 518.21 496.76
  Q 518.40 530.43 518.18 568.50
  Q 518.15 572.50 518.07 576.50
  Q 517.56 602.10 517.66 627.21
  Q 517.66 629.10 516.39 634.50
  Q 515.74 637.23 514.10 638.62
  Z
  M 31.03 392.98
  Q 21.67 397.98 18.59 408.59
  Q 18.26 409.72 18.26 411.00
  Q 18.35 509.94 18.41 613.50
  Q 18.42 620.89 18.70 622.76
  Q 19.55 628.43 23.73 635.38
  C 26.89 640.63 35.12 642.63 40.53 642.66
  Q 64.07 642.76 87.76 642.66
  Q 88.42 642.65 88.42 642.00
  L 88.35 391.02
  Q 88.35 390.67 88.00 390.67
  Q 64.77 390.71 41.61 390.71
  C 38.02 390.71 34.30 391.23 31.03 392.98
  Z
  M 492.46 621.68
  L 501.32 621.64
  A 0.08 0.08 0.0 0 0 501.40 621.56
  Q 501.37 557.71 501.24 494.00
  Q 501.22 484.14 501.08 474.01
  Q 500.62 442.90 500.72 411.79
  Q 500.73 409.52 499.96 407.55
  Q 499.18 405.59 498.13 403.53
  Q 495.09 398.39 489.80 394.19
  Q 485.10 390.46 479.46 390.46
  Q 293.92 390.58 106.25 390.72
  Q 105.68 390.72 105.68 391.29
  L 105.68 642.98
  Q 105.68 643.50 106.20 643.51
  Q 178.91 643.64 248.91 643.81
  C 251.66 643.82 254.46 644.15 257.25 644.18
  Q 297.78 644.54 336.50 643.93
  Q 346.90 643.77 356.50 643.75
  Q 413.65 643.60 471.14 643.73
  Q 476.21 643.74 480.17 643.22
  Q 485.19 642.56 489.47 640.62
  Q 494.51 638.33 499.18 633.43
  A 0.60 0.60 0.0 0 0 498.75 632.41
  Q 464.30 632.52 429.64 632.53
  C 425.94 632.53 423.55 630.82 420.13 630.20
  A 2.95 2.95 0.0 0 1 417.69 627.28
  Q 417.71 601.25 417.80 568.24
  C 417.81 564.66 418.25 561.13 418.25 557.59
  Q 418.28 519.07 418.34 478.25
  Q 418.35 474.16 422.44 473.95
  Q 422.48 473.94 422.61 473.94
  Q 426.75 473.72 426.73 477.84
  Q 426.50 545.40 426.95 599.50
  Q 426.97 601.83 427.04 604.25
  Q 427.28 612.89 427.29 620.93
  A 0.70 0.69 0.0 0 0 427.99 621.62
  L 492.46 621.68
  Z" class="svg-elem-21"></path>
<path fill="#f05d1b" d="
  M 31.03 392.98
  C 34.30 391.23 38.02 390.71 41.61 390.71
  Q 64.77 390.71 88.00 390.67
  Q 88.35 390.67 88.35 391.02
  L 88.42 642.00
  Q 88.42 642.65 87.76 642.66
  Q 64.07 642.76 40.53 642.66
  C 35.12 642.63 26.89 640.63 23.73 635.38
  Q 19.55 628.43 18.70 622.76
  Q 18.42 620.89 18.41 613.50
  Q 18.35 509.94 18.26 411.00
  Q 18.26 409.72 18.59 408.59
  Q 21.67 397.98 31.03 392.98
  Z" class="svg-elem-22"></path>
<path fill="#ffffff" d="
  M 498.13 403.53
  Q 497.97 404.42 497.35 404.64
  Q 496.90 404.79 496.66 405.21
  C 496.10 406.18 495.46 407.27 495.56 408.43
  Q 496.18 415.00 495.81 418.19
  Q 495.22 423.36 495.10 428.40
  C 494.87 438.41 494.45 446.46 494.35 455.14
  Q 494.29 460.24 494.07 465.71
  C 493.84 471.30 494.08 476.96 493.70 482.67
  Q 493.48 485.83 493.48 489.00
  Q 493.32 555.31 492.46 621.68
  L 427.99 621.62
  A 0.70 0.69 -0.0 0 1 427.29 620.93
  Q 427.28 612.89 427.04 604.25
  Q 426.97 601.83 426.95 599.50
  Q 426.50 545.40 426.73 477.84
  Q 426.75 473.72 422.61 473.94
  Q 422.48 473.94 422.44 473.95
  Q 418.35 474.16 418.34 478.25
  Q 418.28 519.07 418.25 557.59
  C 418.25 561.13 417.81 564.66 417.80 568.24
  Q 417.71 601.25 417.69 627.28
  A 2.95 2.95 0.0 0 0 420.13 630.20
  C 423.55 630.82 425.94 632.53 429.64 632.53
  Q 464.30 632.52 498.75 632.41
  A 0.60 0.60 0.0 0 1 499.18 633.43
  Q 494.51 638.33 489.47 640.62
  Q 485.19 642.56 480.17 643.22
  Q 476.21 643.74 471.14 643.73
  Q 413.65 643.60 356.50 643.75
  Q 346.90 643.77 336.50 643.93
  Q 297.78 644.54 257.25 644.18
  C 254.46 644.15 251.66 643.82 248.91 643.81
  Q 178.91 643.64 106.20 643.51
  Q 105.68 643.50 105.68 642.98
  L 105.68 391.29
  Q 105.68 390.72 106.25 390.72
  Q 293.92 390.58 479.46 390.46
  Q 485.10 390.46 489.80 394.19
  Q 495.09 398.39 498.13 403.53
  Z
  M 469.74 455.49
  A 1.59 1.58 10.0 0 0 471.23 454.45
  Q 471.71 453.14 471.72 451.81
  Q 471.86 432.35 471.69 414.42
  Q 471.66 411.31 470.16 408.88
  Q 469.92 408.48 469.45 408.48
  L 382.34 408.50
  A 2.04 2.03 -90.0 0 0 380.31 410.54
  L 380.25 453.00
  A 2.51 2.50 -90.0 0 0 382.75 455.51
  L 469.74 455.49
  Z
  M 347.67 588.22
  Q 350.03 585.27 352.43 582.43
  C 354.17 580.38 354.90 577.68 356.63 575.55
  Q 359.89 571.52 361.31 568.02
  C 363.04 563.78 365.18 559.61 366.32 555.21
  C 367.17 551.92 368.70 549.01 369.48 545.63
  Q 373.87 526.48 371.65 507.23
  C 370.56 497.76 367.79 488.82 364.16 480.04
  C 362.36 475.70 362.21 471.13 358.91 467.48
  C 356.19 464.47 354.72 460.54 352.07 457.46
  Q 347.14 451.75 342.14 445.41
  C 337.62 439.67 331.04 437.61 325.98 432.60
  C 321.90 428.57 317.24 426.34 312.28 423.69
  C 309.83 422.38 307.35 422.60 304.95 421.50
  Q 292.88 416.00 281.08 414.26
  C 274.09 413.24 266.65 412.23 259.72 412.65
  Q 250.37 413.21 239.30 415.30
  Q 236.64 415.81 234.35 416.84
  C 231.52 418.11 228.48 418.12 225.78 419.40
  C 223.35 420.56 221.07 421.84 218.52 422.70
  C 212.75 424.66 207.84 427.04 202.91 430.91
  Q 197.35 435.26 191.57 438.90
  C 187.59 441.40 185.39 446.22 181.48 449.35
  C 178.23 451.95 176.34 455.06 173.82 458.07
  C 170.93 461.52 170.20 465.76 167.75 469.39
  Q 165.69 472.44 164.11 475.80
  C 162.12 480.03 159.90 483.97 158.96 488.59
  Q 158.02 493.22 157.29 497.73
  C 156.80 500.78 155.39 503.29 155.42 506.50
  Q 155.46 510.85 154.93 514.76
  C 154.55 517.53 154.63 520.40 154.67 523.24
  Q 154.71 525.95 155.04 528.69
  Q 155.37 531.42 155.65 534.12
  Q 156.73 544.62 160.28 554.06
  C 161.60 557.59 162.17 561.18 164.18 564.64
  Q 166.71 568.98 168.78 573.35
  Q 170.78 577.59 173.40 581.07
  Q 185.62 597.31 202.30 609.26
  C 204.36 610.73 207.05 611.33 209.36 612.94
  Q 217.88 618.90 226.78 621.52
  Q 231.99 623.06 237.18 624.88
  Q 242.91 626.89 251.23 627.63
  C 253.27 627.81 254.96 628.50 257.08 628.56
  Q 266.52 628.82 273.01 628.15
  Q 287.67 626.64 305.36 620.04
  C 309.34 618.55 313.32 615.54 317.32 613.55
  Q 323.72 610.37 331.16 605.13
  Q 333.56 603.45 335.59 601.12
  Q 338.94 597.29 343.09 594.24
  C 345.34 592.60 346.19 590.06 347.67 588.22
  Z" class="svg-elem-23"></path>
<path fill="#1b1b28" d="
  M 612.23 412.42
  A 1.80 1.80 0.0 0 1 613.36 414.70
  L 612.95 415.91
  A 6.77 4.53 18.7 0 1 605.09 418.03
  L 583.36 410.67
  A 6.77 4.53 18.7 0 1 578.40 404.21
  L 578.80 403.01
  A 1.80 1.80 0.0 0 1 581.09 401.88
  L 612.23 412.42
  Z" class="svg-elem-24"></path>
<path fill="#e0dddd" d="
  M 498.13 403.53
  Q 499.18 405.59 499.96 407.55
  Q 500.73 409.52 500.72 411.79
  Q 500.62 442.90 501.08 474.01
  Q 501.22 484.14 501.24 494.00
  Q 501.37 557.71 501.40 621.56
  A 0.08 0.08 0.0 0 1 501.32 621.64
  L 492.46 621.68
  Q 493.32 555.31 493.48 489.00
  Q 493.48 485.83 493.70 482.67
  C 494.08 476.96 493.84 471.30 494.07 465.71
  Q 494.29 460.24 494.35 455.14
  C 494.45 446.46 494.87 438.41 495.10 428.40
  Q 495.22 423.36 495.81 418.19
  Q 496.18 415.00 495.56 408.43
  C 495.46 407.27 496.10 406.18 496.66 405.21
  Q 496.90 404.79 497.35 404.64
  Q 497.97 404.42 498.13 403.53
  Z" class="svg-elem-25"></path>
<path fill="#201c1e" d="
  M 469.74 455.49
  L 382.75 455.51
  A 2.51 2.50 -90.0 0 1 380.25 453.00
  L 380.31 410.54
  A 2.04 2.03 90.0 0 1 382.34 408.50
  L 469.45 408.48
  Q 469.92 408.48 470.16 408.88
  Q 471.66 411.31 471.69 414.42
  Q 471.86 432.35 471.72 451.81
  Q 471.71 453.14 471.23 454.45
  A 1.59 1.58 10.0 0 1 469.74 455.49
  Z
  M 454.5288 426.8989
  A 0.51 0.51 0.0 0 0 454.0197 426.3880
  L 399.0597 426.2920
  A 0.51 0.51 0.0 0 0 398.5489 426.8012
  L 398.5312 436.9011
  A 0.51 0.51 0.0 0 0 399.0403 437.4120
  L 454.0003 437.5080
  A 0.51 0.51 0.0 0 0 454.5111 436.9988
  L 454.5288 426.8989
  Z" class="svg-elem-26"></path>
<path fill="#201c1e" d="
  M 347.67 588.22
  C 346.19 590.06 345.34 592.60 343.09 594.24
  Q 338.94 597.29 335.59 601.12
  Q 333.56 603.45 331.16 605.13
  Q 323.72 610.37 317.32 613.55
  C 313.32 615.54 309.34 618.55 305.36 620.04
  Q 287.67 626.64 273.01 628.15
  Q 266.52 628.82 257.08 628.56
  C 254.96 628.50 253.27 627.81 251.23 627.63
  Q 242.91 626.89 237.18 624.88
  Q 231.99 623.06 226.78 621.52
  Q 217.88 618.90 209.36 612.94
  C 207.05 611.33 204.36 610.73 202.30 609.26
  Q 185.62 597.31 173.40 581.07
  Q 170.78 577.59 168.78 573.35
  Q 166.71 568.98 164.18 564.64
  C 162.17 561.18 161.60 557.59 160.28 554.06
  Q 156.73 544.62 155.65 534.12
  Q 155.37 531.42 155.04 528.69
  Q 154.71 525.95 154.67 523.24
  C 154.63 520.40 154.55 517.53 154.93 514.76
  Q 155.46 510.85 155.42 506.50
  C 155.39 503.29 156.80 500.78 157.29 497.73
  Q 158.02 493.22 158.96 488.59
  C 159.90 483.97 162.12 480.03 164.11 475.80
  Q 165.69 472.44 167.75 469.39
  C 170.20 465.76 170.93 461.52 173.82 458.07
  C 176.34 455.06 178.23 451.95 181.48 449.35
  C 185.39 446.22 187.59 441.40 191.57 438.90
  Q 197.35 435.26 202.91 430.91
  C 207.84 427.04 212.75 424.66 218.52 422.70
  C 221.07 421.84 223.35 420.56 225.78 419.40
  C 228.48 418.12 231.52 418.11 234.35 416.84
  Q 236.64 415.81 239.30 415.30
  Q 250.37 413.21 259.72 412.65
  C 266.65 412.23 274.09 413.24 281.08 414.26
  Q 292.88 416.00 304.95 421.50
  C 307.35 422.60 309.83 422.38 312.28 423.69
  C 317.24 426.34 321.90 428.57 325.98 432.60
  C 331.04 437.61 337.62 439.67 342.14 445.41
  Q 347.14 451.75 352.07 457.46
  C 354.72 460.54 356.19 464.47 358.91 467.48
  C 362.21 471.13 362.36 475.70 364.16 480.04
  C 367.79 488.82 370.56 497.76 371.65 507.23
  Q 373.87 526.48 369.48 545.63
  C 368.70 549.01 367.17 551.92 366.32 555.21
  C 365.18 559.61 363.04 563.78 361.31 568.02
  Q 359.89 571.52 356.63 575.55
  C 354.90 577.68 354.17 580.38 352.43 582.43
  Q 350.03 585.27 347.67 588.22
  Z
  M 215.06 595.12
  C 221.42 598.49 227.49 602.44 234.09 605.24
  C 238.63 607.18 243.84 607.54 248.68 608.80
  C 251.96 609.65 255.32 609.55 258.69 609.95
  Q 262.45 610.40 266.23 610.21
  Q 272.18 609.91 276.64 609.07
  Q 281.42 608.16 286.65 607.04
  Q 291.47 606.01 295.78 604.12
  Q 302.06 601.38 306.86 598.36
  C 309.90 596.44 313.01 595.10 316.14 593.64
  A 9.51 9.44 9.3 0 0 318.93 591.65
  Q 324.57 585.78 330.20 580.88
  C 333.72 577.81 336.38 573.97 338.81 570.04
  C 340.90 566.66 344.19 563.47 345.40 559.86
  Q 347.65 553.14 350.09 546.37
  Q 357.17 526.76 353.30 505.72
  Q 352.42 500.92 349.53 492.65
  C 346.16 483.00 343.07 473.93 335.87 466.74
  C 332.41 463.28 329.88 459.10 326.44 455.56
  C 323.24 452.28 318.93 450.40 315.61 447.40
  Q 313.26 445.27 311.19 443.72
  C 307.35 440.83 300.84 438.81 297.17 437.48
  C 280.38 431.39 263.30 428.68 246.33 432.09
  Q 241.30 433.09 234.37 435.61
  Q 228.47 437.75 222.50 439.71
  Q 220.02 440.52 217.56 442.31
  Q 211.23 446.92 205.59 450.93
  Q 201.84 453.58 198.71 457.41
  Q 193.88 463.31 189.38 468.44
  C 188.10 469.90 186.03 472.55 185.57 474.40
  Q 184.91 477.05 183.44 479.25
  Q 176.42 489.74 173.91 504.25
  Q 172.83 510.49 172.71 515.37
  Q 172.42 526.71 174.61 538.00
  C 175.99 545.15 179.15 553.06 182.44 559.45
  Q 184.38 563.18 186.67 567.18
  Q 188.93 571.12 191.66 574.30
  Q 200.13 584.20 209.92 591.81
  Q 212.24 593.62 215.06 595.12
  Z" class="svg-elem-27"></path>
<path fill="#1b1b28" d="
  M 598.84 465.89
  C 595.44 463.71 591.61 462.34 588.45 459.82
  Q 585.80 457.72 582.80 456.22
  C 577.14 453.41 572.30 449.31 566.95 446.52
  Q 561.59 443.73 557.02 440.45
  C 553.45 437.89 549.76 435.67 545.91 433.52
  C 541.65 431.15 538.29 427.85 534.13 425.40
  A 1.36 1.35 -75.6 0 1 533.47 424.27
  L 533.28 417.32
  A 0.67 0.66 0.8 0 1 533.99 416.64
  C 537.00 416.84 539.87 417.69 542.51 419.12
  Q 548.48 422.35 554.22 425.22
  C 558.27 427.25 561.82 430.13 565.96 432.11
  Q 570.87 434.45 575.85 437.75
  Q 580.34 440.73 585.44 443.71
  Q 597.51 450.79 610.42 458.80
  C 614.10 461.08 618.33 462.60 621.68 465.34
  C 626.32 469.13 631.41 471.90 636.54 474.80
  A 2.22 2.22 0.0 0 1 637.25 478.03
  C 634.99 481.14 629.78 485.44 625.84 482.75
  C 624.25 481.66 622.94 480.39 621.22 479.41
  Q 610.13 473.14 598.84 465.89
  Z" class="svg-elem-28"></path>
<rect fill="#ffffff" x="-27.99" y="-5.56" transform="translate(426.53,431.90) rotate(0.1)" width="55.98" height="11.12" rx="0.51" class="svg-elem-29"></rect>
<path fill="#969697" d="
  M 215.06 595.12
  Q 212.24 593.62 209.92 591.81
  Q 200.13 584.20 191.66 574.30
  Q 188.93 571.12 186.67 567.18
  Q 184.38 563.18 182.44 559.45
  C 179.15 553.06 175.99 545.15 174.61 538.00
  Q 172.42 526.71 172.71 515.37
  Q 172.83 510.49 173.91 504.25
  Q 176.42 489.74 183.44 479.25
  Q 184.91 477.05 185.57 474.40
  C 186.03 472.55 188.10 469.90 189.38 468.44
  Q 193.88 463.31 198.71 457.41
  Q 201.84 453.58 205.59 450.93
  Q 211.23 446.92 217.56 442.31
  Q 220.02 440.52 222.50 439.71
  Q 228.47 437.75 234.37 435.61
  Q 241.30 433.09 246.33 432.09
  C 263.30 428.68 280.38 431.39 297.17 437.48
  C 300.84 438.81 307.35 440.83 311.19 443.72
  Q 313.26 445.27 315.61 447.40
  C 318.93 450.40 323.24 452.28 326.44 455.56
  C 329.88 459.10 332.41 463.28 335.87 466.74
  C 343.07 473.93 346.16 483.00 349.53 492.65
  Q 352.42 500.92 353.30 505.72
  Q 357.17 526.76 350.09 546.37
  Q 347.65 553.14 345.40 559.86
  C 344.19 563.47 340.90 566.66 338.81 570.04
  C 336.38 573.97 333.72 577.81 330.20 580.88
  Q 324.57 585.78 318.93 591.65
  A 9.51 9.44 9.3 0 1 316.14 593.64
  C 313.01 595.10 309.90 596.44 306.86 598.36
  Q 302.06 601.38 295.78 604.12
  Q 291.47 606.01 286.65 607.04
  Q 281.42 608.16 276.64 609.07
  Q 272.18 609.91 266.23 610.21
  Q 262.45 610.40 258.69 609.95
  C 255.32 609.55 251.96 609.65 248.68 608.80
  C 243.84 607.54 238.63 607.18 234.09 605.24
  C 227.49 602.44 221.42 598.49 215.06 595.12
  Z
  M 303.58 453.56
  C 301.57 452.60 299.75 451.20 297.67 450.34
  Q 290.72 447.46 283.66 445.17
  Q 279.24 443.73 275.23 443.29
  C 265.70 442.25 255.13 441.38 245.89 444.49
  Q 242.75 445.54 239.61 446.49
  C 237.14 447.22 235.20 448.90 232.69 449.30
  C 229.04 449.89 226.16 451.34 223.11 453.44
  Q 218.96 456.29 215.13 458.95
  C 211.66 461.36 209.51 464.97 206.81 467.71
  Q 204.56 469.99 202.01 472.43
  C 199.30 475.02 198.18 479.29 195.92 482.38
  Q 185.95 496.00 185.43 514.83
  Q 185.02 529.25 187.86 539.76
  Q 191.06 551.62 200.24 565.06
  Q 205.86 573.27 214.02 580.10
  C 217.59 583.09 221.82 585.34 225.72 588.08
  Q 228.49 590.03 232.23 591.87
  C 236.22 593.84 240.27 594.86 244.41 596.28
  Q 247.05 597.18 249.76 597.62
  Q 262.81 599.73 276.04 597.66
  C 279.81 597.07 282.60 595.87 286.01 594.93
  Q 289.55 593.96 293.30 592.33
  Q 298.84 589.92 301.46 588.26
  Q 311.27 582.06 318.09 575.45
  Q 320.72 572.91 329.89 561.32
  C 332.78 557.67 333.99 552.98 336.05 548.71
  Q 338.25 544.14 339.54 538.83
  Q 346.25 511.16 333.39 486.07
  Q 330.43 480.28 326.31 473.68
  C 325.22 471.94 324.06 470.09 322.34 468.93
  Q 318.82 466.53 316.19 463.28
  C 312.87 459.16 308.36 455.85 303.58 453.56
  Z" class="svg-elem-30"></path>
<path fill="#201c1e" d="
  M 303.58 453.56
  C 308.36 455.85 312.87 459.16 316.19 463.28
  Q 318.82 466.53 322.34 468.93
  C 324.06 470.09 325.22 471.94 326.31 473.68
  Q 330.43 480.28 333.39 486.07
  Q 346.25 511.16 339.54 538.83
  Q 338.25 544.14 336.05 548.71
  C 333.99 552.98 332.78 557.67 329.89 561.32
  Q 320.72 572.91 318.09 575.45
  Q 311.27 582.06 301.46 588.26
  Q 298.84 589.92 293.30 592.33
  Q 289.55 593.96 286.01 594.93
  C 282.60 595.87 279.81 597.07 276.04 597.66
  Q 262.81 599.73 249.76 597.62
  Q 247.05 597.18 244.41 596.28
  C 240.27 594.86 236.22 593.84 232.23 591.87
  Q 228.49 590.03 225.72 588.08
  C 221.82 585.34 217.59 583.09 214.02 580.10
  Q 205.86 573.27 200.24 565.06
  Q 191.06 551.62 187.86 539.76
  Q 185.02 529.25 185.43 514.83
  Q 185.95 496.00 195.92 482.38
  C 198.18 479.29 199.30 475.02 202.01 472.43
  Q 204.56 469.99 206.81 467.71
  C 209.51 464.97 211.66 461.36 215.13 458.95
  Q 218.96 456.29 223.11 453.44
  C 226.16 451.34 229.04 449.89 232.69 449.30
  C 235.20 448.90 237.14 447.22 239.61 446.49
  Q 242.75 445.54 245.89 444.49
  C 255.13 441.38 265.70 442.25 275.23 443.29
  Q 279.24 443.73 283.66 445.17
  Q 290.72 447.46 297.67 450.34
  C 299.75 451.20 301.57 452.60 303.58 453.56
  Z
  M 296.74 541.63
  Q 299.79 537.00 300.63 533.42
  C 302.10 527.21 303.35 519.61 301.38 513.36
  C 299.76 508.26 299.09 502.78 295.78 498.36
  C 290.80 491.71 284.72 485.08 276.78 482.38
  Q 268.17 479.45 261.97 479.51
  Q 252.82 479.59 242.55 483.51
  C 239.99 484.49 238.65 486.71 236.68 488.43
  Q 233.17 491.51 229.70 495.48
  Q 227.01 498.56 225.92 502.19
  Q 224.06 508.32 223.61 512.20
  Q 223.17 516.02 222.70 519.92
  Q 222.67 520.24 222.75 520.54
  Q 223.30 522.63 223.72 526.32
  Q 224.24 530.99 226.29 535.99
  Q 228.41 541.15 231.22 544.48
  Q 236.24 550.45 242.84 555.22
  C 245.40 557.08 248.51 557.54 251.44 558.54
  Q 254.27 559.50 258.18 559.68
  C 264.78 559.98 272.21 559.91 278.02 557.00
  Q 285.00 553.49 289.94 549.52
  Q 293.39 546.73 296.74 541.63
  Z" class="svg-elem-31"></path>
<path fill="#009194" d="
  M 296.74 541.63
  Q 293.39 546.73 289.94 549.52
  Q 285.00 553.49 278.02 557.00
  C 272.21 559.91 264.78 559.98 258.18 559.68
  Q 254.27 559.50 251.44 558.54
  C 248.51 557.54 245.40 557.08 242.84 555.22
  Q 236.24 550.45 231.22 544.48
  Q 228.41 541.15 226.29 535.99
  Q 224.24 530.99 223.72 526.32
  Q 223.30 522.63 222.75 520.54
  Q 222.67 520.24 222.70 519.92
  Q 223.17 516.02 223.61 512.20
  Q 224.06 508.32 225.92 502.19
  Q 227.01 498.56 229.70 495.48
  Q 233.17 491.51 236.68 488.43
  C 238.65 486.71 239.99 484.49 242.55 483.51
  Q 252.82 479.59 261.97 479.51
  Q 268.17 479.45 276.78 482.38
  C 284.72 485.08 290.80 491.71 295.78 498.36
  C 299.09 502.78 299.76 508.26 301.38 513.36
  C 303.35 519.61 302.10 527.21 300.63 533.42
  Q 299.79 537.00 296.74 541.63
  Z
  M 277.92 508.52
  C 282.85 513.30 289.81 517.42 290.82 525.30
  Q 291.58 531.21 291.06 536.09
  Q 290.99 536.77 291.47 536.28
  C 294.07 533.67 294.34 527.22 293.93 523.77
  Q 292.93 515.46 289.37 507.64
  Q 289.20 507.28 288.50 506.50
  C 287.51 505.62 286.62 504.71 286.56 503.30
  C 286.40 499.57 284.72 496.46 283.17 493.21
  Q 282.54 491.89 282.63 490.41
  Q 282.66 489.88 282.20 489.61
  Q 276.81 486.42 273.39 485.78
  Q 269.64 485.07 266.79 483.87
  A 3.46 3.44 45.1 0 0 264.11 483.86
  L 258.78 486.10
  Q 258.32 486.30 258.51 486.77
  L 258.64 487.10
  A 0.50 0.49 -20.0 0 0 259.26 487.38
  L 261.40 486.63
  Q 262.27 486.33 261.72 487.07
  Q 260.22 489.07 258.03 488.72
  Q 255.02 488.24 255.37 491.26
  L 255.73 494.36
  Q 256.01 496.84 258.49 497.17
  Q 262.62 497.74 267.37 498.82
  C 269.77 499.36 270.43 501.38 270.96 503.46
  Q 271.14 504.18 271.77 504.58
  L 277.92 508.52
  Z" class="svg-elem-32"></path>
<path fill="#ffffff" d="
  M 288.50 506.50
  Q 288.45 506.66 288.39 506.79
  Q 288.21 507.14 287.83 507.17
  C 284.69 507.45 280.69 506.92 277.92 508.52
  L 271.77 504.58
  Q 271.14 504.18 270.96 503.46
  C 270.43 501.38 269.77 499.36 267.37 498.82
  Q 262.62 497.74 258.49 497.17
  Q 256.01 496.84 255.73 494.36
  L 255.37 491.26
  Q 255.02 488.24 258.03 488.72
  Q 260.22 489.07 261.72 487.07
  Q 262.27 486.33 261.40 486.63
  L 259.26 487.38
  A 0.50 0.49 -20.0 0 1 258.64 487.10
  L 258.51 486.77
  Q 258.32 486.30 258.78 486.10
  L 264.11 483.86
  A 3.46 3.44 45.1 0 1 266.79 483.87
  Q 269.64 485.07 273.39 485.78
  Q 276.81 486.42 282.20 489.61
  Q 282.66 489.88 282.63 490.41
  Q 282.54 491.89 283.17 493.21
  C 284.72 496.46 286.40 499.57 286.56 503.30
  C 286.62 504.71 287.51 505.62 288.50 506.50
  Z" class="svg-elem-33"></path>
<path fill="#1b1b28" d="
  M 584.89 504.96
  C 587.57 507.08 589.13 510.37 591.30 513.02
  Q 593.03 515.12 595.18 516.98
  Q 599.26 520.50 602.54 525.65
  C 604.37 528.52 606.87 530.65 608.74 533.46
  Q 609.89 535.18 608.30 536.50
  L 607.84 536.89
  Q 605.56 538.79 603.65 536.53
  C 601.54 534.02 599.48 531.47 597.06 529.20
  Q 593.35 525.70 589.98 521.01
  C 585.26 514.41 580.00 508.39 574.76 502.13
  Q 573.37 500.47 575.21 499.33
  Q 575.65 499.06 576.65 498.45
  A 2.36 2.35 -31.1 0 1 579.93 499.26
  Q 581.88 502.57 584.89 504.96
  Z" class="svg-elem-34"></path>
<path fill="#e0dddd" d="
  M 288.50 506.50
  Q 289.20 507.28 289.37 507.64
  Q 292.93 515.46 293.93 523.77
  C 294.34 527.22 294.07 533.67 291.47 536.28
  Q 290.99 536.77 291.06 536.09
  Q 291.58 531.21 290.82 525.30
  C 289.81 517.42 282.85 513.30 277.92 508.52
  C 280.69 506.92 284.69 507.45 287.83 507.17
  Q 288.21 507.14 288.39 506.79
  Q 288.45 506.66 288.50 506.50
  Z" class="svg-elem-35"></path>
<path fill="#a7634d" d="
  M 514.10 638.62
  Q 516.00 644.46 518.95 650.44
  Q 521.25 655.10 521.77 658.03
  Q 522.94 664.63 522.32 672.31
  C 522.03 675.85 520.68 679.36 519.83 682.79
  C 519.10 685.70 516.33 688.73 514.27 690.98
  Q 500.17 706.39 479.44 706.41
  Q 256.80 706.63 45.10 706.56
  Q 36.06 706.56 30.41 704.97
  Q 23.27 702.96 14.14 696.32
  Q 11.89 694.69 10.36 692.53
  C 8.38 689.72 6.12 687.08 4.63 684.02
  Q -0.99 672.47 2.93 658.40
  Q 5.18 650.31 8.31 644.76
  Q 14.93 651.63 20.77 655.96
  C 26.89 660.49 37.24 661.32 44.58 661.28
  C 57.34 661.20 69.70 661.08 82.00 661.14
  Q 131.52 661.39 183.25 660.97
  C 187.27 660.94 191.33 661.15 195.25 661.11
  Q 289.56 660.25 374.00 661.08
  Q 377.41 661.11 380.50 661.13
  Q 428.23 661.39 469.07 661.19
  Q 472.84 661.17 477.03 660.89
  Q 480.75 660.64 484.83 660.26
  Q 489.80 659.78 494.47 658.02
  C 500.96 655.57 506.93 649.35 510.89 643.97
  Q 511.76 642.79 512.46 641.33
  Q 513.38 639.43 514.10 638.62
  Z" class="svg-elem-36"></path>
</svg>